<svg xmlns="http://www.w3.org/2000/svg" width="42.426" height="42.427" viewBox="0 0 42.426 42.427">
    <g transform="rotate(-45 25.606 10.607)">
        <rect width="30" height="30" rx="10" style="fill:#fff"/>
        <g data-name="arrow">
            <path d="M5 5.5a.5.5 0 0 1-.354-.146l-5-5a.5.5 0 0 1 0-.707.5.5 0 0 1 .707 0l5 5A.5.5 0 0 1 5 5.5z" transform="rotate(45 -10.087 25.45)" style="fill:#111"/>
            <path data-name="line" d="M0 5.5a.5.5 0 0 1-.354-.146.5.5 0 0 1 0-.707l5-5a.5.5 0 0 1 .707 0 .5.5 0 0 1 0 .707l-5 5A.5.5 0 0 1 0 5.5z" style="fill:#111" transform="rotate(45 -7.587 19.415)"/>
        </g>
        <path data-name="line" d="M11 .5H0A.5.5 0 0 1-.5 0 .5.5 0 0 1 0-.5h11a.5.5 0 0 1 .5.5.5.5 0 0 1-.5.5z" style="fill:#111" transform="rotate(45 -2.508 20.811)"/>
    </g>
</svg>
