<svg xmlns="http://www.w3.org/2000/svg" width="12" height="12" viewBox="0 0 12 12">
    <path d="M13.571 17H8.429A3.428 3.428 0 0 1 5 13.571V8.429A3.428 3.428 0 0 1 8.429 5h5.143A3.428 3.428 0 0 1 17 8.429v5.143A3.428 3.428 0 0 1 13.571 17zM8.429 5.857a2.579 2.579 0 0 0-2.572 2.572v5.143a2.579 2.579 0 0 0 2.571 2.571h5.143a2.579 2.579 0 0 0 2.571-2.571V8.429a2.579 2.579 0 0 0-2.571-2.571z" transform="translate(-5 -5)" style="fill:#02dc9d"/>
    <path data-name="패스 7441" d="M2.214 75.523a.733.733 0 0 1-.519-.215L.127 73.74a.432.432 0 0 1 0-.611.432.432 0 0 1 .611 0L2.214 74.6l3.905-3.9a.432.432 0 0 1 .611 0 .432.432 0 0 1 0 .611l-4 4a.733.733 0 0 1-.516.212z" transform="translate(2.57 -67.048)" style="fill:#02dc9d"/>
</svg>
