<svg xmlns="http://www.w3.org/2000/svg" width="30" height="30" viewBox="0 0 30 30">
    <path d="m73.554 219.832-.748-.748a2.1 2.1 0 0 0-.614-2.4 2.245 2.245 0 0 0-2.316-.533l-.748-.748a2.3 2.3 0 0 1 .652-.253 3.388 3.388 0 0 1 .759-.083 3.324 3.324 0 0 1 3.35 3.35 3.333 3.333 0 0 1-.089.774 2.237 2.237 0 0 1-.246.641zm2.75 2.725-.67-.645a9.976 9.976 0 0 0 1.735-1.632 7.1 7.1 0 0 0 1.138-1.859 8.535 8.535 0 0 0-3.193-3.688 8.386 8.386 0 0 0-4.618-1.358 9.582 9.582 0 0 0-1.68.151 7.883 7.883 0 0 0-1.405.363l-.749-.763a8.9 8.9 0 0 1 1.751-.519 10.132 10.132 0 0 1 2.009-.208 9.383 9.383 0 0 1 5.335 1.637 9.593 9.593 0 0 1 3.583 4.385 10.059 10.059 0 0 1-1.338 2.272 10.379 10.379 0 0 1-1.902 1.864zm1.289 4.662-3.481-3.441a7.668 7.668 0 0 1-1.6.479 10.117 10.117 0 0 1-1.972.186 9.459 9.459 0 0 1-5.393-1.637 9.793 9.793 0 0 1-3.607-4.385 9.425 9.425 0 0 1 1.272-2.175 11.707 11.707 0 0 1 1.873-1.917L62.05 211.7l.688-.7 15.5 15.5zm-12.241-12.2a8.606 8.606 0 0 0-1.612 1.527 7.187 7.187 0 0 0-1.18 1.876 8.543 8.543 0 0 0 3.243 3.688 8.923 8.923 0 0 0 4.86 1.358 10.175 10.175 0 0 0 1.584-.123 3.925 3.925 0 0 0 1.127-.3l-1.525-1.525a2.289 2.289 0 0 1-.61.186 3.879 3.879 0 0 1-.7.07 3.251 3.251 0 0 1-2.37-.967 3.216 3.216 0 0 1-.98-2.383 3.628 3.628 0 0 1 .07-.687 2.847 2.847 0 0 1 .186-.622zm6.295 3.036zm-2.28 1.145z" transform="translate(-55.539 -204.001)" style="fill:#111"/>
    <path style="fill:none" d="M0 0h30v30H0z"/>
</svg>
