<svg xmlns="http://www.w3.org/2000/svg" width="30" height="30" viewBox="0 0 30 30">
    <path d="M70.544 285.373a3.346 3.346 0 1 0-2.372-.978 3.218 3.218 0 0 0 2.372.978zm-.011-.966a2.284 2.284 0 0 1-1.687-.7 2.316 2.316 0 0 1-.691-1.693 2.284 2.284 0 0 1 .7-1.687 2.317 2.317 0 0 1 1.693-.691 2.284 2.284 0 0 1 1.687.7 2.316 2.316 0 0 1 .691 1.693 2.284 2.284 0 0 1-.7 1.687 2.316 2.316 0 0 1-1.693.691zm.008 3.638a9.282 9.282 0 0 1-5.373-1.657 10.3 10.3 0 0 1-3.628-4.365 10.306 10.306 0 0 1 3.627-4.365 9.539 9.539 0 0 1 10.745 0 10.3 10.3 0 0 1 3.628 4.365 10.305 10.305 0 0 1-3.627 4.365 9.276 9.276 0 0 1-5.372 1.657zm-.001-6.022zm0 5.046a8.552 8.552 0 0 0 4.706-1.371 8.927 8.927 0 0 0 3.265-3.674 8.936 8.936 0 0 0-3.261-3.674 8.754 8.754 0 0 0-9.409 0 9.021 9.021 0 0 0-3.278 3.674 9.029 9.029 0 0 0 3.275 3.674 8.534 8.534 0 0 0 4.698 1.371z" transform="translate(-55.539 -267.001)" style="fill:#111"/>
    <path style="fill:none" d="M0 0h30v30H0z"/>
</svg>
